<?xml version="1.0" standalone="no"?><!DOCTYPE svg PUBLIC "-//W3C//DTD SVG 1.1//EN" "http://www.w3.org/Graphics/SVG/1.1/DTD/svg11.dtd"><svg t="1622340111839" class="icon" viewBox="0 0 1024 1024" version="1.1" xmlns="http://www.w3.org/2000/svg" p-id="4292" xmlns:xlink="http://www.w3.org/1999/xlink" width="200" height="200"><defs><style type="text/css"></style></defs><path d="M864 832a32 32 0 0 1 0 64H160a32 32 0 0 1 0-64h704zM544 288a64 64 0 0 1 64 64v352a64 64 0 0 1-64 64h-64a64 64 0 0 1-64-64V352a64 64 0 0 1 64-64h64z m-256 160a64 64 0 0 1 64 64v192a64 64 0 0 1-64 64H224a64 64 0 0 1-64-64v-192a64 64 0 0 1 64-64h64zM800 128a64 64 0 0 1 64 64v512a64 64 0 0 1-64 64h-64a64 64 0 0 1-64-64V192a64 64 0 0 1 64-64h64z m-256 224h-64v352h64V352z m-256 160H224v192h64v-192zM800 192h-64v512h64V192z" fill="#000000" p-id="4293"></path></svg>